<svg height="512.001pt" viewBox="0 0 512.001 512.001" width="512.001pt" xmlns="http://www.w3.org/2000/svg"><path d="m437.019531 74.980469c-48.351562-48.351563-112.640625-74.980469-181.019531-74.980469s-132.667969 26.628906-181.019531 74.980469c-48.351563 48.351562-74.980469 112.640625-74.980469 181.019531 0 68.382812 26.628906 132.667969 74.980469 181.019531 48.351562 48.351563 112.640625 74.980469 181.019531 74.980469 60.027344 0 118.382812-21.195312 164.320312-59.6875 3.183594-2.667969 3.601563-7.410156.933594-10.59375-2.664062-3.183594-7.410156-3.605469-10.59375-.9375-26.148437 21.910156-56.574218 37.855469-89.039062 47.042969 16.261718-12.738281 31.175781-30.3125 44.101562-52.3125 8.558594-14.566407 15.945313-30.578125 22.09375-47.695313 17.117188-6.148437 33.128906-13.535156 47.695313-22.09375 22.0625-12.960937 39.675781-27.925781 52.421875-44.242187-10.320313 36.664062-29.289063 70.582031-55.839844 98.996093-2.835938 3.035157-2.675781 7.796876.359375 10.632813s7.792969 2.671875 10.628906-.359375c44.441407-47.5625 68.917969-109.621094 68.917969-174.746094 0-68.382812-26.628906-132.671875-74.980469-181.023437zm-10.636719 10.636719c29.664063 29.664062 50.632813 65.703124 61.644532 105.027343-12.753906-16.363281-30.398438-31.371093-52.515625-44.367187-14.550781-8.550782-30.546875-15.929688-47.648438-22.074219-6.957031-19.339844-15.5-37.265625-25.542969-53.324219-2.199218-3.523437-6.84375-4.589844-10.363281-2.386718-3.523437 2.203124-4.589843 6.839843-2.386719 10.363281 7.445313 11.90625 14.054688 25.109375 19.769532 39.296875-34.800782-10.25-73.382813-15.675782-113.339844-15.675782-39.96875 0-78.558594 5.429688-113.363281 15.683594 7.707031-19.082031 17.011719-36.316406 27.664062-50.988281 24.757813-34.101563 54.394531-52.128906 85.699219-52.128906 27.015625 0 53.28125 13.78125 75.953125 39.851562 2.730469 3.132813 7.480469 3.464844 10.613281.738281 3.132813-2.726562 3.464844-7.476562.738282-10.613281-7.039063-8.089843-14.421876-15.125-22.078126-21.085937 39.371094 11.003906 75.457032 31.988281 105.15625 61.683594zm-315.21875 137.964843c-4.152343-.253906-7.707031 2.921875-7.949218 7.070313-.488282 8.367187-.738282 16.894531-.738282 25.347656 0 39.996094 5.433594 78.609375 15.703126 113.433594-12.074219-4.894532-23.484376-10.460938-34.070313-16.679688-44.539063-26.171875-69.066406-60.53125-69.066406-96.753906s24.527343-70.582031 69.066406-96.753906c10.613281-6.234375 22.054687-11.8125 34.167969-16.714844-5.394532 18.25-9.507813 37.585938-12.15625 57.574219-.546875 4.121093 2.351562 7.898437 6.46875 8.445312.335937.042969.667968.066407.996094.066407 3.714843 0 6.945312-2.75 7.449218-6.535157 3.082032-23.25 8.191406-45.542969 15.054688-66.121093 36.109375-12.035157 77.144531-18.441407 119.910156-18.441407 42.75 0 83.765625 6.402344 119.863281 18.425781 12.050781 36.269532 18.617188 77.679688 18.617188 120.054688 0 42.804688-6.417969 83.871094-18.472657 120.003906-36.132812 12.054688-77.199218 18.472656-120.007812 18.472656-42.804688 0-83.871094-6.417968-120.003906-18.472656-12.054688-36.132812-18.472656-77.199218-18.472656-120.003906 0-8.164062.238281-16.398438.710937-24.472656.242187-4.144532-2.925781-7.703125-7.070313-7.945313zm-25.546874-137.964843c29.75-29.75 65.914062-50.757813 105.367187-61.742188-11.746094 9.074219-22.808594 20.617188-32.855469 34.460938-13.488281 18.582031-24.921875 40.945312-33.847656 65.816406-17.15625 6.15625-33.199219 13.550781-47.792969 22.125-22.117187 12.996094-39.761719 28.003906-52.515625 44.367187 11.011719-39.324219 31.980469-75.363281 61.644532-105.027343zm0 340.765624c-29.664063-29.664062-50.632813-65.703124-61.644532-105.027343 12.753906 16.363281 30.398438 31.371093 52.515625 44.367187 14.566407 8.558594 30.578125 15.945313 47.699219 22.09375 6.148438 17.117188 13.53125 33.128906 22.089844 47.695313 12.996094 22.117187 28.003906 39.761719 44.367187 52.515625-39.324219-11.011719-75.363281-31.980469-105.027343-61.644532zm267.136718 1.507813c-26.171875 44.539063-60.53125 69.066406-96.753906 69.066406s-70.582031-24.527343-96.753906-69.066406c-6.21875-10.585937-11.785156-21.996094-16.679688-34.070313 34.824219 10.265626 73.4375 15.699219 113.433594 15.699219 39.992188 0 78.609375-5.433593 113.429688-15.703125-4.890626 12.078125-10.457032 23.488282-16.675782 34.074219zm75.136719-75.136719c-10.585937 6.21875-21.996094 11.785156-34.070313 16.675782 10.265626-34.820313 15.699219-73.4375 15.699219-113.429688 0-40.144531-5.40625-78.683594-15.648437-113.410156 12.058594 4.890625 23.449218 10.445312 34.019531 16.65625 44.539063 26.171875 69.066406 60.53125 69.066406 96.753906s-24.527343 70.582031-69.066406 96.753906zm0 0"/><path d="m158.445312 295.652344c-4.152343 0-7.523437 3.367187-7.523437 7.519531 0 4.15625 3.371094 7.523437 7.523437 7.523437h35.304688c4.152344 0 7.519531-3.367187 7.519531-7.523437v-76.292969c0-4.15625-3.367187-7.523437-7.519531-7.523437h-35.304688c-4.152343 0-7.523437 3.367187-7.523437 7.523437 0 4.152344 3.371094 7.519532 7.523437 7.519532h27.78125v23.105468h-27.78125c-4.152343 0-7.523437 3.367188-7.523437 7.523438 0 4.152344 3.371094 7.519531 7.523437 7.519531h27.78125v23.105469zm0 0"/><path d="m292.277344 310.695312h38.148437c4.152344 0 7.519531-3.367187 7.519531-7.523437v-76.292969c0-4.15625-3.367187-7.523437-7.519531-7.523437h-38.148437c-4.152344 0-7.519532 3.367187-7.519532 7.523437v76.296875c0 4.152344 3.367188 7.519531 7.519532 7.519531zm30.625-45.667968v30.625h-23.101563v-61.253906h23.101563zm0 0"/><path d="m225.085938 310.695312h38.144531c4.15625 0 7.523437-3.367187 7.523437-7.523437v-38.144531c0-4.15625-3.367187-7.523438-7.523437-7.523438h-30.625v-23.105468h30.625c4.15625 0 7.523437-3.367188 7.523437-7.519532 0-4.15625-3.367187-7.523437-7.523437-7.523437h-38.144531c-4.15625 0-7.523438 3.367187-7.523438 7.523437v76.296875c0 4.152344 3.367188 7.519531 7.523438 7.519531zm7.519531-38.148437h23.105469v23.105469h-23.105469zm0 0"/><path d="m350.835938 210.027344c11.417968 0 20.710937-9.292969 20.710937-20.710938 0-11.421875-9.292969-20.714844-20.710937-20.714844-11.421876 0-20.714844 9.292969-20.714844 20.714844 0 11.417969 9.292968 20.710938 20.714844 20.710938zm0-26.382813c3.125 0 5.667968 2.542969 5.667968 5.671875 0 3.125-2.542968 5.667969-5.667968 5.667969s-5.671876-2.542969-5.671876-5.667969c0-3.128906 2.546876-5.671875 5.671876-5.671875zm0 0"/></svg>